<svg width="14" height="14" viewBox="0 0 14 14" fill="none" xmlns="http://www.w3.org/2000/svg">
<g clip-path="url(#clip0_573_201)">
<path fill-rule="evenodd" clip-rule="evenodd" d="M7.5565 3.0625C7.5565 2.94647 7.51041 2.83519 7.42836 2.75314C7.34631 2.67109 7.23503 2.625 7.119 2.625H1.3125C0.964403 2.625 0.630564 2.76328 0.384422 3.00942C0.138281 3.25556 0 3.5894 0 3.9375L0 12.6875C0 13.0356 0.138281 13.3694 0.384422 13.6156C0.630564 13.8617 0.964403 14 1.3125 14H10.0625C10.4106 14 10.7444 13.8617 10.9906 13.6156C11.2367 13.3694 11.375 13.0356 11.375 12.6875V6.881C11.375 6.76497 11.3289 6.65369 11.2469 6.57164C11.1648 6.48959 11.0535 6.4435 10.9375 6.4435C10.8215 6.4435 10.7102 6.48959 10.6281 6.57164C10.5461 6.65369 10.5 6.76497 10.5 6.881V12.6875C10.5 12.8035 10.4539 12.9148 10.3719 12.9969C10.2898 13.0789 10.1785 13.125 10.0625 13.125H1.3125C1.19647 13.125 1.08519 13.0789 1.00314 12.9969C0.921094 12.9148 0.875 12.8035 0.875 12.6875V3.9375C0.875 3.82147 0.921094 3.71019 1.00314 3.62814C1.08519 3.54609 1.19647 3.5 1.3125 3.5H7.119C7.23503 3.5 7.34631 3.45391 7.42836 3.37186C7.51041 3.28981 7.5565 3.17853 7.5565 3.0625Z" fill="#222222"/>
<path fill-rule="evenodd" clip-rule="evenodd" d="M14.0001 0.4375C14.0001 0.321468 13.954 0.210188 13.8719 0.128141C13.7899 0.0460936 13.6786 0 13.5626 0L9.18756 0C9.07153 0 8.96025 0.0460936 8.87821 0.128141C8.79616 0.210188 8.75006 0.321468 8.75006 0.4375C8.75006 0.553532 8.79616 0.664812 8.87821 0.746859C8.96025 0.828906 9.07153 0.875 9.18756 0.875H12.5064L5.37781 8.00275C5.33714 8.04343 5.30487 8.09172 5.28286 8.14486C5.26084 8.19801 5.24951 8.25497 5.24951 8.3125C5.24951 8.37003 5.26084 8.42699 5.28286 8.48014C5.30487 8.53328 5.33714 8.58157 5.37781 8.62225C5.41849 8.66293 5.46678 8.69519 5.51993 8.71721C5.57308 8.73922 5.63004 8.75055 5.68756 8.75055C5.74509 8.75055 5.80205 8.73922 5.8552 8.71721C5.90835 8.69519 5.95664 8.66293 5.99731 8.62225L13.1251 1.49363V4.8125C13.1251 4.92853 13.1712 5.03981 13.2532 5.12186C13.3353 5.20391 13.4465 5.25 13.5626 5.25C13.6786 5.25 13.7899 5.20391 13.8719 5.12186C13.954 5.03981 14.0001 4.92853 14.0001 4.8125V0.4375Z" fill="#222222"/>
</g>
<defs>
<clipPath id="clip0_573_201">
<rect width="14" height="14" fill="white"/>
</clipPath>
</defs>
</svg>
