<svg width="21" height="20" viewBox="0 0 21 20" fill="none" xmlns="http://www.w3.org/2000/svg">
<g clip-path="url(#clip0_598_72)">
<path fill-rule="evenodd" clip-rule="evenodd" d="M10.2259 0C4.57122 0 0 4.58333 0 10.2535C0 14.786 2.92894 18.6227 6.99215 19.9806C7.50016 20.0827 7.68624 19.76 7.68624 19.4885C7.68624 19.2508 7.66949 18.436 7.66949 17.5871C4.82491 18.1983 4.23255 16.3648 4.23255 16.3648C3.77541 15.1765 3.09806 14.871 3.09806 14.871C2.16703 14.2429 3.16588 14.2429 3.16588 14.2429C4.19864 14.3108 4.74055 15.2954 4.74055 15.2954C5.65463 16.8571 7.12758 16.4158 7.72015 16.1442C7.80471 15.4821 8.07577 15.0237 8.36358 14.7692C6.09482 14.5315 3.7078 13.6487 3.7078 9.71021C3.7078 8.58979 4.11387 7.67312 4.7573 6.96021C4.65578 6.70562 4.30016 5.65292 4.85903 4.24396C4.85903 4.24396 5.72245 3.97229 7.66928 5.29646C8.50279 5.07201 9.36238 4.95784 10.2259 4.95687C11.0893 4.95687 11.9694 5.07583 12.7822 5.29646C14.7293 3.97229 15.5927 4.24396 15.5927 4.24396C16.1515 5.65292 15.7957 6.70562 15.6942 6.96021C16.3546 7.67312 16.7439 8.58979 16.7439 9.71021C16.7439 13.6487 14.3569 14.5144 12.0712 14.7692C12.4437 15.0917 12.7653 15.7027 12.7653 16.6704C12.7653 18.0454 12.7485 19.149 12.7485 19.4883C12.7485 19.76 12.9348 20.0827 13.4426 19.9808C17.5058 18.6225 20.4347 14.786 20.4347 10.2535C20.4515 4.58333 15.8635 0 10.2259 0Z" fill="#434343"/>
</g>
<defs>
<clipPath id="clip0_598_72">
<rect width="20.5128" height="20" fill="white"/>
</clipPath>
</defs>
</svg>
